<svg height="512" viewBox="0 0 52 58" width="512" xmlns="http://www.w3.org/2000/svg"><g id="Page-1" fill="none" fill-rule="evenodd"><g id="002---Alarm"><path id="Shape" d="m23.89 7.03c-.3-.02-.6-.03-.89-.03" stroke="#000" stroke-linecap="round" stroke-linejoin="round" stroke-width="2"/><g fill-rule="nonzero"><path id="Shape" d="m31 50c0 4.418278-3.581722 8-8 8s-8-3.581722-8-8l8-2z" fill="#f29c1f"/><path id="Shape" d="m28.48 2.66c-1.68 1.17-2.39 3.61-3.48 5.34-.13-.01-.26-.02-.39-.02-.3-.02-.6-.03-.89-.03-2.44 0-5.48-.44-7.57.49-.1013897-.47324871-.1516778-.95601509-.15-1.44-.0032291-2.97912518 1.8815535-5.63311326 4.6953902-6.611643 2.8138366-.97852974 5.9386668-.06666662 7.7846098 2.271643z" fill="#f3d55b"/><path id="Shape" d="m43.59 50h-41.18c-.79843686-.0036742-1.51859231-.480738-1.83337732-1.2145127-.314785-.7337747-.16419338-1.5843838.38337732-2.1654873 2.97389752-3.1734997 4.75510988-7.2801838 5.04-11.62v-11c-.00278974-6.7408789 3.97963426-12.8459545 10.15-15.56 2.1569848-.95537009 4.4909155-1.44600661 6.85-1.44.29 0 .59.01.89.03.13 0 .26.01.39.02-2.8900306 4.6240361-3.0430597 10.4522093-.3996686 15.2215353 2.6433911 4.7693259 7.6667807 7.7284776 13.1196686 7.7284647 1.0075985.0022508 2.0127996-.0982693 3-.3v5.3c.2848901 4.3398162 2.0661025 8.4465003 5.04 11.62.5475707.5811035.6981623 1.4317126.3833773 2.1654873s-1.0349404 1.2108385-1.8333773 1.2145127z" fill="#f0c419"/><path id="Shape" d="m52 15c-.0016476 7.1279237-5.0167106 13.2713758-12 14.7-.9872004.2017307-1.9924015.3022508-3 .3-5.4528879.0000129-10.4762775-2.9591388-13.1196686-7.7284647-2.6433911-4.769326-2.490362-10.5974992.3996686-15.2215353 1.0919899-1.72975 2.520225-3.2225957 4.2-4.39 4.5868803-3.1707293 10.5544135-3.53417109 15.4921801-.94352315 4.9377666 2.59064795 8.0300545 7.70741424 8.0278199 13.28352315z" fill="#3b97d3"/><path id="Shape" d="m37 18c-1.1476875.0000795-2.120751-.8438389-2.283-1.98l-1.151-8.06c-.142345-.99556732.1543686-2.00390933.8132461-2.76370984.6588775-.7598005 1.6150619-1.19626804 2.6207539-1.19629016 1.005692.00002212 1.9618764.43648966 2.6207539 1.19629016.6588775.75980051.9555911 1.76814252.8132461 2.76370984l-1.151 8.06c-.162249 1.1361611-1.1353125 1.9800795-2.283 1.98z" fill="#fff"/><circle id="Oval" cx="37" cy="24" fill="#fff" r="2"/><path id="Shape" d="m10 47h-4c-.55228475 0-1-.4477153-1-1s.44771525-1 1-1h4c.5522847 0 1 .4477153 1 1s-.4477153 1-1 1z" fill="#f9eab0"/><path id="Shape" d="m40 47h-26c-.5522847 0-1-.4477153-1-1s.4477153-1 1-1h26c.5522847 0 1 .4477153 1 1s-.4477153 1-1 1z" fill="#f9eab0"/><path id="Shape" d="m10 25c-.55228475 0-1-.4477153-1-1-.0065679-4.253626 1.9293192-8.2774872 5.257-10.927.2779125-.2315358.6591983-.2949398.9970866-.1658055s.5796999.4306739.6323526.7885451c.0526527.3578713-.0920624.7162796-.3784392.9372604-2.852681 2.2713418-4.51265 5.7205276-4.508 9.367 0 .2652165-.1053568.5195704-.2928932.7071068s-.4418903.2928932-.7071068.2928932z" fill="#f9eab0"/></g></g></g></svg>